<svg width="82" height="12" viewBox="0 0 82 12" fill="none" xmlns="http://www.w3.org/2000/svg">
<path d="M6.06261 8.78215L8.51496 8.16581L9.53957 11.2975L6.06261 8.78215ZM11.7064 4.73431H7.38957L6.06261 0.703125L4.73566 4.73431H0.418865L3.91262 7.23297L2.58566 11.2642L6.07941 8.76549L8.22941 7.23297L11.7064 4.73431ZM23.5314 8.78215L25.9837 8.16581L27.0083 11.2975L23.5314 8.78215ZM29.1751 4.73431H24.8583L23.5314 0.703125L22.2044 4.73431H17.8876L21.3814 7.23297L20.0544 11.2642L23.5482 8.76549L25.6982 7.23297L29.1751 4.73431ZM41.0001 8.78215L43.4525 8.16581L44.4771 11.2975L41.0001 8.78215ZM46.6439 4.73431H42.3271L41.0001 0.703125L39.6732 4.73431H35.3564L38.8501 7.23297L37.5232 11.2642L41.0169 8.76549L43.1669 7.23297L46.6439 4.73431ZM58.4689 8.78215L60.9212 8.16581L61.9458 11.2975L58.4689 8.78215ZM64.1126 4.73431H59.7958L58.4689 0.703125L57.1419 4.73431H52.8251L56.3189 7.23297L54.9919 11.2642L58.4857 8.76549L60.6357 7.23297L64.1126 4.73431ZM75.9376 8.78215L78.39 8.16581L79.4146 11.2975L75.9376 8.78215ZM81.5814 4.73431H77.2646L75.9376 0.703125L74.6107 4.73431H70.2939L73.7876 7.23297L72.4607 11.2642L75.9544 8.76549L78.1044 7.23297L81.5814 4.73431Z" fill="white"/>
</svg>
